<?xml version="1.0" encoding="UTF-8" standalone="no"?>
<!-- Created with Inkscape (http://www.inkscape.org/) -->

<svg
   width="111.16174mm"
   height="45.834621mm"
   viewBox="0 0 111.16174 45.834621"
   version="1.1"
   id="svg5"
   xml:space="preserve"
   inkscape:version="1.1.2 (b8e25be833, 2022-02-05)"
   sodipodi:docname="logo.svg"
   xmlns:inkscape="http://www.inkscape.org/namespaces/inkscape"
   xmlns:sodipodi="http://sodipodi.sourceforge.net/DTD/sodipodi-0.dtd"
   xmlns="http://www.w3.org/2000/svg"
   xmlns:svg="http://www.w3.org/2000/svg"><sodipodi:namedview
     id="namedview7"
     pagecolor="#ffffff"
     bordercolor="#000000"
     borderopacity="0.25"
     inkscape:showpageshadow="2"
     inkscape:pageopacity="0.0"
     inkscape:pagecheckerboard="0"
     inkscape:deskcolor="#d1d1d1"
     inkscape:document-units="mm"
     showgrid="false"
     inkscape:zoom="0.5"
     inkscape:cx="253"
     inkscape:cy="497"
     inkscape:window-width="1728"
     inkscape:window-height="992"
     inkscape:window-x="-8"
     inkscape:window-y="-8"
     inkscape:window-maximized="1"
     inkscape:current-layer="layer1"
     inkscape:pageshadow="2"
     fit-margin-top="0"
     fit-margin-left="0"
     fit-margin-right="0"
     fit-margin-bottom="0" /><defs
     id="defs2" /><g
     inkscape:label="图层 1"
     inkscape:groupmode="layer"
     id="layer1"
     transform="translate(-34.18005,-90.718474)"><g
       id="g6173"
       transform="translate(3.0869631,58.27812)"><path
         style="fill:#008000;fill-opacity:1;stroke-width:0.0875061"
         d="m 106.92643,78.233943 c -1.3667,-0.1811 -2.4553,-0.48168 -2.94991,-0.81453 -1.26384,-0.8505 -0.61513,-2.66596 1.38352,-3.87183 0.37475,-0.2261 0.93289,-0.53429 1.24033,-0.68486 0.30743,-0.15058 0.5766,-0.28637 0.59815,-0.30177 0.0215,-0.0154 -0.049,-0.11107 -0.15683,-0.21261 -0.27773,-0.26158 -0.39474,-0.58124 -0.39474,-1.07839 0,-0.34813 0.0637,-0.52439 0.33153,-0.91675 0.66394,-0.97278 1.61325,-1.78621 2.81088,-2.40852 0.31926,-0.1659 0.5812,-0.32012 0.58209,-0.34273 9.3e-4,-0.0226 -0.18656,-0.14598 -0.41656,-0.27418 -1.2112,-0.67512 -1.70377,-1.80314 -1.30486,-2.98826 0.19667,-0.58431 0.93606,-1.54404 1.6165,-2.09824 0.9813,-0.79924 2.39346,-1.44076 3.9708,-1.80388 1.53916,-0.35433 4.07873,-0.26929 5.10983,0.17109 0.37068,0.15832 0.56283,0.17136 2.52448,0.17136 1.65856,0 2.11422,0.0225 2.08191,0.10275 -0.0227,0.0565 -0.13979,0.3524 -0.2601,0.65755 l -0.21874,0.55481 h -1.11067 c -1.02249,0 -1.10509,0.0114 -1.04031,0.14384 0.20119,0.41127 0.26265,0.94656 0.16588,1.44497 -0.16118,0.8302 -0.53537,1.40627 -1.42652,2.19615 -0.65573,0.58122 -0.95381,0.77477 -1.72438,1.11969 -0.96405,0.43152 -2.01367,0.76304 -2.98117,0.9416 -0.83766,0.15459 -2.88378,0.13688 -3.39026,-0.0294 l -0.4091,-0.13427 -0.41358,0.30261 c -0.58336,0.42684 -1.237,1.21408 -1.237,1.48984 0,0.24884 0.20195,0.44454 0.55897,0.54168 0.12809,0.0348 1.21808,0.072 2.42219,0.0827 2.27636,0.02 3.02858,0.0996 4.35105,0.45995 1.16048,0.31624 1.66807,0.79572 1.77065,1.67261 0.19161,1.63791 -1.22109,3.44792 -3.53,4.52279 -1.29392,0.60236 -3.22442,1.12009 -4.91868,1.31912 -0.88591,0.10407 -3.04897,0.14282 -3.63535,0.0651 z m 5.13102,-1.42753 c 1.80776,-0.32503 3.0965,-0.84378 3.8119,-1.5344 0.54271,-0.5239 0.68581,-1.00696 0.4355,-1.47008 -0.30024,-0.55548 -0.7255,-0.62574 -3.97506,-0.65674 -2.02939,-0.0194 -2.618,-0.0521 -3.30723,-0.18417 -0.46115,-0.0883 -0.87082,-0.14399 -0.91039,-0.12366 -0.11081,0.057 -0.75238,0.84458 -1.02466,1.25793 -0.82258,1.2488 -0.30137,2.13464 1.56241,2.65545 0.6277,0.1754 0.80434,0.19712 1.70885,0.21015 0.46253,0.007 1.15034,-0.0559 1.69868,-0.15448 z m 2.88086,-9.90746 c 1.17057,-0.34348 2.46481,-1.75105 2.93747,-3.19469 0.20056,-0.61259 0.15332,-1.54969 -0.095,-1.88404 -0.46606,-0.62755 -1.72333,-0.73089 -2.86409,-0.23541 -1.20091,0.52161 -2.36686,1.9761 -2.6051,3.2498 -0.33044,1.76665 0.7493,2.61523 2.62671,2.06434 z m 5.56702,10.96596 c -0.51251,-0.12779 -0.81626,-0.48643 -0.81374,-0.96078 0.005,-0.97245 0.99205,-1.9233 2.1183,-2.04098 0.62928,-0.0657 1.08202,0.0819 1.43321,0.46748 0.36807,0.4041 0.71021,0.51414 1.26036,0.40536 0.96142,-0.19009 1.79141,-0.74582 3.0169,-2.01997 l 0.70244,-0.73035 -0.43833,-5.0946 c -0.24108,-2.80203 -0.46022,-5.21357 -0.48696,-5.35897 -0.0893,-0.48522 -0.36065,-0.86253 -0.79541,-1.10579 -0.23149,-0.12952 -0.49405,-0.2355 -0.58348,-0.2355 -0.25265,0 -0.28306,-0.12507 -0.11858,-0.48774 l 0.15156,-0.3342 h 4.00579 c 3.77811,0 4.00204,0.008 3.93972,0.14384 -0.0363,0.0791 -0.10624,0.24157 -0.15533,0.36103 -0.0776,0.18878 -0.15855,0.22476 -0.61931,0.27514 -0.6545,0.0716 -1.09112,0.22597 -1.21456,0.42948 -0.0649,0.10693 -0.0234,1.19525 0.13396,3.51542 0.12535,1.8483 0.24427,3.37498 0.26427,3.39263 0.02,0.0177 0.30698,-0.25736 0.63773,-0.61112 5.21734,-5.58032 5.32467,-5.70378 5.23876,-6.02635 -0.0709,-0.26638 -0.47769,-0.56159 -0.86228,-0.62584 -0.33864,-0.0566 -0.36622,-0.15016 -0.16778,-0.56919 l 0.13498,-0.28504 h 2.48364 2.48363 l -0.0574,0.20186 c -0.12813,0.45043 -0.24265,0.62008 -0.41854,0.62008 -0.36941,0 -1.00231,0.32488 -1.46472,0.75185 -0.26206,0.24198 -3.12781,3.2695 -6.36833,6.72782 -3.24052,3.45832 -6.17029,6.53896 -6.51062,6.84587 -1.12214,1.01196 -2.76553,1.86324 -4.23136,2.19186 -0.8795,0.19718 -2.22323,0.2752 -2.69849,0.1567 z m -41.667076,-4.55041 c -1.213261,-0.23912 -1.939669,-0.56468 -2.53818,-1.13755 -0.779523,-0.74613 -1.141697,-1.69509 -1.141697,-2.99147 0,-1.93121 1.030483,-3.90765 2.981166,-5.7178 1.598023,-1.4829 3.079121,-2.3222 4.984138,-2.82438 0.759622,-0.20025 0.982976,-0.22131 2.375617,-0.2241 1.42705,-0.003 1.591003,0.0128 2.288736,0.21872 2.398044,0.70766 3.323967,2.54297 2.553654,5.06171 l -0.204729,0.66941 H 85.266394 80.39583 l -0.214958,0.6781 c -0.167745,0.52917 -0.216027,0.89475 -0.219819,1.66444 -0.0061,1.24805 0.15468,1.71027 0.790205,2.27098 0.782396,0.69029 2.246282,0.93689 3.630102,0.61152 0.816503,-0.19198 2.031348,-0.70201 2.750379,-1.1547 0.324633,-0.20438 0.617097,-0.3716 0.649923,-0.3716 0.03283,0 0.250384,0.11576 0.483466,0.25724 l 0.423783,0.25725 -0.779644,0.45156 c -1.075063,0.62267 -3.348061,1.59652 -4.438479,1.90164 -1.717273,0.48053 -3.413411,0.61931 -4.632534,0.37903 z m 7.699919,-8.48297 c 0.772624,-1.78651 0.653745,-3.00735 -0.331271,-3.40203 -0.537279,-0.21528 -1.480581,-0.20631 -2.171403,0.0207 -0.684745,0.22496 -1.706891,1.1027 -2.205846,1.8942 -0.343477,0.54486 -0.988428,1.87493 -0.988428,2.03842 0,0.0566 0.900816,0.0774 2.720398,0.0628 l 2.720399,-0.0218 z m -55.445086,8.25727 c 4.2e-5,-0.0115 0.07955,-0.20587 0.176691,-0.43191 l 0.176615,-0.41097 0.613153,-0.0547 c 1.365565,-0.12178 2.439393,-0.66044 2.990547,-1.50013 0.290545,-0.44265 5.425876,-12.89147 5.558771,-13.4753 0.244522,-1.07423 -0.342935,-1.69639 -1.60177,-1.69639 -0.196852,0 -0.280367,-0.0341 -0.251397,-0.10274 0.02386,-0.0565 0.09965,-0.24145 0.168425,-0.41097 l 0.125042,-0.30823 h 9.164519 c 7.668201,0 9.159601,0.0182 9.134397,0.1115 -0.01657,0.0613 -0.512231,1.28183 -1.101478,2.71224 l -1.071356,2.60074 -0.395936,1.6e-4 -0.395937,1.7e-4 -0.0011,-0.7603 c -0.0019,-1.27329 -0.3544,-2.10913 -1.209068,-2.86653 -0.945796,-0.83816 -2.016401,-1.15246 -3.960287,-1.16263 -1.833024,-0.01 -2.651001,0.27806 -3.125816,1.09921 -0.154724,0.26758 -1.012414,2.30805 -2.428836,5.77827 l -0.365799,0.8962 0.957254,-0.0524 c 1.108949,-0.0607 2.127341,-0.28913 2.891345,-0.6484 1.046653,-0.49219 2.153566,-1.57324 2.779842,-2.7149 0.211978,-0.38643 0.218817,-0.39043 0.667693,-0.39043 0.427731,0 0.449775,0.0105 0.387639,0.18494 -0.03623,0.10172 -0.850762,2.08979 -1.810059,4.41793 l -1.744178,4.233 -0.486584,0.0251 c -0.432498,0.0223 -0.480907,0.009 -0.43551,-0.12329 0.165256,-0.48009 0.251011,-1.03327 0.253544,-1.63553 0.0044,-1.0377 -0.371998,-1.6668 -1.279703,-2.13906 -0.419616,-0.21832 -1.440979,-0.4387 -2.04365,-0.44097 l -0.379451,-10e-4 -1.462989,3.5549 c -1.657167,4.02672 -1.687691,4.1495 -1.149579,4.62427 0.424197,0.37426 0.928586,0.47819 2.256374,0.46494 1.374392,-0.0137 2.480306,-0.17724 3.785243,-0.5597 2.162542,-0.6338 4.298893,-2.09893 5.645851,-3.87196 0.327345,-0.43089 0.328548,-0.43152 0.82702,-0.43152 0.274559,0 0.499198,0.011 0.499198,0.0244 0,0.0134 -0.731188,1.24324 -1.624861,2.73295 l -1.624862,2.70858 -9.554512,0.0209 c -5.254982,0.0115 -9.554479,0.0115 -9.554437,0 z m 22.288579,-0.0817 c 0.02407,-0.057 0.0983,-0.2381 0.164962,-0.40247 0.108992,-0.26875 0.162781,-0.30388 0.533996,-0.34877 0.89629,-0.10839 1.787465,-0.64085 2.171786,-1.2976 0.204576,-0.3496 3.148558,-7.45457 3.258507,-7.86405 0.154782,-0.57645 -0.262976,-0.99925 -0.987332,-0.99925 -0.315359,0 -0.336506,-0.0151 -0.283368,-0.20186 0.16547,-0.58167 0.144783,-0.56967 1.326538,-0.76972 0.607759,-0.10288 1.955674,-0.35414 2.995368,-0.55835 1.039694,-0.20421 1.947654,-0.35962 2.01769,-0.34536 0.09667,0.0197 0.02961,0.26286 -0.278445,1.0097 -0.223181,0.54108 -0.392515,0.99548 -0.376297,1.00979 0.01622,0.0143 0.359886,-0.17418 0.763709,-0.41886 2.0523,-1.24353 4.447707,-1.87105 6.254481,-1.63848 2.076552,0.2673 2.846476,1.18961 2.434189,2.91597 -0.05721,0.23956 -0.790858,2.10467 -1.630325,4.14468 -0.839468,2.04002 -1.526149,3.81541 -1.525957,3.94532 5.59e-4,0.36417 0.308599,0.72859 0.789567,0.93401 0.463599,0.19801 0.473022,0.22902 0.236423,0.77806 l -0.09011,0.20911 h -3.925186 -3.925187 l 0.05742,-0.20186 c 0.15309,-0.53815 0.217815,-0.60184 0.705438,-0.6941 0.951803,-0.1801 1.810112,-0.7537 2.146224,-1.43431 0.432136,-0.87506 2.894655,-6.98421 2.942471,-7.29984 0.08031,-0.53012 -0.07192,-0.7879 -0.58309,-0.98739 -0.889807,-0.34727 -2.940289,-0.0846 -4.13033,0.52915 -0.469375,0.24207 -1.106325,0.79509 -1.300557,1.12919 -0.318372,0.54764 -2.891708,6.9074 -2.891708,7.14659 0,0.57674 0.354717,0.8851 1.108783,0.9639 l 0.448301,0.0468 -0.163632,0.38036 -0.163632,0.38037 -4.072229,0.0214 c -3.245056,0.0171 -4.063341,4.1e-4 -4.02847,-0.0822 z m 36.775704,-0.0652 c 0,-0.0467 0.05883,-0.20906 0.130727,-0.36088 0.09744,-0.20575 0.221977,-0.30209 0.489098,-0.37835 0.924614,-0.26399 1.579656,-0.69341 1.903635,-1.24796 0.394433,-0.67514 3.252543,-7.78841 3.252203,-8.09409 -5.6e-4,-0.48377 -0.287339,-0.82666 -0.783685,-0.93693 l -0.416545,-0.0925 0.160149,-0.38055 0.160149,-0.38055 2.280079,-0.33738 c 1.254038,-0.18555 2.502228,-0.38031 2.77376,-0.4328 0.27152,-0.0525 0.65806,-0.0954 0.85897,-0.0954 h 0.36529 l -0.37193,0.91603 c -0.20456,0.50381 -0.35846,0.9279 -0.34201,0.94241 0.0164,0.0145 0.34228,-0.17905 0.72405,-0.43015 0.82245,-0.54094 2.35773,-1.21501 3.05106,-1.33958 0.70528,-0.12673 1.47261,-0.10966 1.80073,0.04 1.07107,0.48866 0.37915,2.44444 -1.06081,2.99846 -0.88352,0.33993 -1.5329,0.23319 -2.2321,-0.36691 -0.31852,-0.27337 -0.37843,-0.29326 -0.74529,-0.24742 -1.01006,0.12622 -1.67686,0.47454 -2.174612,1.13595 -0.21604,0.28707 -0.79287,1.56735 -1.72849,3.83637 -1.532008,3.71534 -1.559608,3.82467 -1.073748,4.25334 0.17777,0.15684 0.358988,0.21545 0.756058,0.2445 0.33736,0.0247 0.50655,0.0709 0.47791,0.13049 -0.0244,0.0508 -0.0956,0.23099 -0.1583,0.40052 l -0.11396,0.30823 h -3.991192 c -2.681491,0 -3.991196,-0.0278 -3.991196,-0.0848 z"
         id="path1584"
         sodipodi:nodetypes="ssssssscsssssssscscssssssscssccssssssssssccsscsssssssssccssscscssscssssssssssscccsssssssssssssccscccscssssscssssscssscssscsssssscssscccsscsscsssssscscssccsssssssscssscsssssssssssssssssscccsssssssscccccccsssssscccssscsssscssssssssscsss" /><path
         style="fill:#800000;fill-opacity:1;stroke-width:0.0875061"
         d="m 40.03651,51.737923 v -0.35043 l 0.469568,-0.0984 c 0.563924,-0.11818 0.945256,-0.34377 1.187104,-0.70225 0.09857,-0.14612 1.6825,-3.67907 3.519837,-7.85102 l 3.340612,-7.58535 0.794702,0.02349 0.794701,0.0235 1.824194,4.1097 c 1.003306,2.26034 2.559188,5.67674 3.457514,7.59201 1.350014,2.87828 1.693845,3.539 1.982252,3.8092 0.383443,0.35923 0.980129,0.63562 1.378258,0.63843 0.241227,0.002 0.256194,0.0234 0.256194,0.37167 v 0.36988 h -4.658073 -4.658072 v -0.36988 c 0,-0.36691 0.0026,-0.36987 0.32148,-0.36987 0.652099,0 1.278995,-0.17569 1.624404,-0.45526 0.314539,-0.25458 0.335422,-0.3019 0.319015,-0.72297 -0.01222,-0.31368 -0.164482,-0.79619 -0.501186,-1.58827 -0.265997,-0.62575 -0.521878,-1.20292 -0.568625,-1.28262 -0.07908,-0.13481 -0.309265,-0.1434 -3.305935,-0.12329 l -3.220941,0.0216 -0.639813,1.52059 c -0.351898,0.83633 -0.640499,1.63812 -0.641338,1.78176 -0.0026,0.45414 0.581296,0.7298 1.745253,0.82389 l 0.582259,0.0471 v 0.35862 0.35862 H 42.738192 40.03651 Z m 10.434083,-5.41001 c 0,-0.049 -0.550378,-1.46373 -1.22306,-3.14392 -0.672684,-1.68019 -1.264809,-3.15941 -1.315835,-3.28716 -0.05103,-0.12774 -0.125711,-0.20171 -0.165968,-0.16438 -0.06942,0.0644 -2.977986,6.55113 -2.977986,6.64157 0,0.0236 1.278641,0.0429 2.841424,0.0429 1.977624,0 2.841425,-0.0271 2.841425,-0.089 z m 10.061436,5.39055 c 0,-0.30437 0.03036,-0.36987 0.171443,-0.36987 0.292545,0 1.270786,-0.47718 1.470149,-0.71712 0.39084,-0.4704 0.40796,-0.64728 0.40796,-4.21464 v -3.42773 l -0.21183,-0.27733 c -0.289434,-0.37893 -0.727491,-0.62245 -1.335699,-0.74254 l -0.511187,-0.10093 0.02787,-0.33069 0.02787,-0.3307 2.329036,-0.35156 c 1.28097,-0.19336 2.528169,-0.35265 2.771553,-0.35397 l 0.442517,-0.002 v 4.89463 c 0,5.38999 -0.02264,5.17337 0.582161,5.56951 0.356412,0.23346 0.830379,0.38548 1.201808,0.38548 0.252657,0 0.265583,0.018 0.265583,0.36987 v 0.36987 h -3.819619 -3.81962 z"
         id="path1582"
         sodipodi:nodetypes="ccssscccssscscccssssssscsccccccccsssssssssssscsscccsccsssscccs" /><ellipse
         style="fill:#800080;fill-opacity:0.6;stroke:#8e00bf;stroke-width:0.192284;stroke-linecap:round;stroke-miterlimit:4;stroke-dasharray:none;stroke-opacity:1"
         id="path2307-1"
         cx="64.463943"
         cy="37.143497"
         rx="2.0503623"
         ry="1.74745" /><path
         style="fill:#008000;fill-opacity:0.8;fill-rule:nonzero;stroke:none;stroke-width:0.510077"
         d="m 126.10749,41.991581 -8.25764,5.97376 2.87291,1.6332 -13.57541,7.27127 c 13.71314,-1.90372 15.42478,-3.11498 19.554,-10.14017 1.60985,-2.83975 3.88594,-7.36124 3.88594,-7.36124 -7.88017,1.47371 -26.3215,-0.111 -24.39132,16.83615 1.1156,-0.94809 8.84998,-6.31277 8.84998,-6.31277 l -3.04797,-1.53836 z"
         id="path7960"
         sodipodi:nodetypes="cccccccccc" /><path
         style="fill:#4062d8;fill-opacity:0.4;stroke:#4063d8;stroke-width:0.397396;stroke-linecap:butt;stroke-linejoin:miter;stroke-miterlimit:4;stroke-dasharray:none;stroke-opacity:1"
         d="m 86.746153,34.670518 -15.420124,17.629904 15.69433,-10e-6 z"
         id="path2254"
         sodipodi:nodetypes="cccc" /><ellipse
         style="fill:#4062d8;fill-opacity:0.4;stroke:#4063d8;stroke-width:0.448627;stroke-miterlimit:4;stroke-dasharray:none;stroke-opacity:1"
         id="ellipse2244"
         ry="4.116663"
         rx="4.2467847"
         cy="48.593594"
         cx="99.643021" /><rect
         style="fill:#4062d8;fill-opacity:0.4;stroke:#4063d8;stroke-width:0.419707;stroke-linecap:round;stroke-miterlimit:4;stroke-dasharray:none;stroke-opacity:1"
         id="rect2246"
         width="3.5468309"
         height="23.792679"
         x="89.397369"
         y="32.650208" /><ellipse
         style="fill:#00ff00;fill-opacity:0.8;stroke:#009800;stroke-width:0.236381;stroke-miterlimit:4;stroke-dasharray:none;stroke-opacity:0.8"
         id="path22"
         cx="84.190781"
         cy="44.441635"
         rx="2.2820857"
         ry="2.1900733" /><ellipse
         style="fill:#ff0000;fill-opacity:0.61;stroke:#db1228;stroke-width:0.247699;stroke-miterlimit:4;stroke-dasharray:none;stroke-opacity:0.8"
         id="circle24"
         cx="78.474686"
         cy="49.761814"
         rx="2.306663"
         ry="2.1844151" /><ellipse
         style="fill:#005dff;fill-opacity:0.75;stroke:#075efa;stroke-width:0.245311;stroke-miterlimit:4;stroke-dasharray:none;stroke-opacity:0.85098"
         id="circle26"
         cx="84.154877"
         cy="49.712608"
         rx="2.3078558"
         ry="2.1414294" /><path
         style="fill:#ffffff;stroke:#ffffff;stroke-width:0.428629;stroke-linecap:round;stroke-linejoin:miter;stroke-miterlimit:4;stroke-dasharray:none;stroke-opacity:1"
         d="M 74.343768,49.15728 85.351806,39.287877"
         id="path2201" /><path
         style="fill:#ffffff;stroke:#ffffff;stroke-width:0.417208;stroke-linecap:round;stroke-linejoin:miter;stroke-miterlimit:4;stroke-dasharray:none;stroke-opacity:1"
         d="M 79.261312,43.568277 85.640153,40.74464"
         id="path2203" /></g></g></svg>
